<svg width="65" height="18" viewBox="0 0 65 18" fill="none" xmlns="http://www.w3.org/2000/svg">
<path d="M6.37536 18C9.71896 18 11.8499 16.0164 12.0751 13.1925H9.07796C8.80943 14.6218 7.77863 15.4447 6.40135 15.4447C4.4437 15.4447 3.17902 13.8075 3.17902 11.0876C3.17902 8.40231 4.46968 6.79115 6.40135 6.79115C7.90857 6.79115 8.83542 7.76131 9.07796 9.04331H12.0751C11.8585 6.15881 9.60635 4.26179 6.35804 4.26179C2.46006 4.26179 0 7.077 0 11.1396C0 15.1675 2.39942 18 6.37536 18Z" fill="url(#paint0_linear_3095_20085)"/>
<path d="M16.566 0H13.4303V17.7401H16.566V0Z" fill="url(#paint1_linear_3095_20085)"/>
<path d="M24.4611 18C27.5622 18 29.6931 16.4841 30.2474 14.1713L27.3196 13.8422C26.8952 14.9682 25.8557 15.5573 24.5044 15.5573C22.4775 15.5573 21.1348 14.2233 21.1089 11.9451H30.3774V10.9836C30.3774 6.31472 27.5708 4.26179 24.2965 4.26179C20.4852 4.26179 17.9991 7.05967 17.9991 11.1655C17.9991 15.3407 20.4505 18 24.4611 18ZM21.1175 9.83157C21.2128 8.13378 22.4688 6.70452 24.3398 6.70452C26.1416 6.70452 27.3543 8.02117 27.3716 9.83157H21.1175Z" fill="url(#paint2_linear_3095_20085)"/>
<path d="M43.3139 4.43503H39.979L36.9126 14.3186H36.774L33.7162 4.43503H30.3726L35.1108 17.7401H38.5757L43.3139 4.43503Z" fill="url(#paint3_linear_3095_20085)"/>
<path d="M49.7018 18C52.8029 18 54.9338 16.4841 55.4882 14.1713L52.5603 13.8422C52.1359 14.9682 51.0964 15.5573 49.7451 15.5573C47.7182 15.5573 46.3755 14.2233 46.3496 11.9451H55.6181V10.9836C55.6181 6.31472 52.8115 4.26179 49.5372 4.26179C45.7259 4.26179 43.2398 7.05967 43.2398 11.1655C43.2398 15.3407 45.6912 18 49.7018 18ZM46.3582 9.83157C46.4535 8.13378 47.7095 6.70452 49.5806 6.70452C51.3823 6.70452 52.595 8.02117 52.6123 9.83157H46.3582Z" fill="url(#paint4_linear_3095_20085)"/>
<path d="M57.0512 17.7401H60.187V9.91819C60.187 8.22907 61.4603 7.03369 63.1841 7.03369C63.7125 7.03369 64.3708 7.12897 64.6393 7.21559V4.33109C64.3535 4.27911 63.8597 4.24447 63.5132 4.24447C61.9887 4.24447 60.7153 5.11068 60.2303 6.65255H60.0917V4.43503H57.0512V17.7401Z" fill="url(#paint5_linear_3095_20085)"/>
<defs>
<linearGradient id="paint0_linear_3095_20085" x1="64.6393" y1="0" x2="55.3359" y2="33.4093" gradientUnits="userSpaceOnUse">
<stop stop-color="#BB65FF"/>
<stop offset="1" stop-color="#4C6FFF"/>
</linearGradient>
<linearGradient id="paint1_linear_3095_20085" x1="64.6393" y1="0" x2="55.3359" y2="33.4093" gradientUnits="userSpaceOnUse">
<stop stop-color="#BB65FF"/>
<stop offset="1" stop-color="#4C6FFF"/>
</linearGradient>
<linearGradient id="paint2_linear_3095_20085" x1="64.6393" y1="0" x2="55.3359" y2="33.4093" gradientUnits="userSpaceOnUse">
<stop stop-color="#BB65FF"/>
<stop offset="1" stop-color="#4C6FFF"/>
</linearGradient>
<linearGradient id="paint3_linear_3095_20085" x1="64.6393" y1="0" x2="55.3359" y2="33.4093" gradientUnits="userSpaceOnUse">
<stop stop-color="#BB65FF"/>
<stop offset="1" stop-color="#4C6FFF"/>
</linearGradient>
<linearGradient id="paint4_linear_3095_20085" x1="64.6393" y1="0" x2="55.3359" y2="33.4093" gradientUnits="userSpaceOnUse">
<stop stop-color="#BB65FF"/>
<stop offset="1" stop-color="#4C6FFF"/>
</linearGradient>
<linearGradient id="paint5_linear_3095_20085" x1="64.6393" y1="0" x2="55.3359" y2="33.4093" gradientUnits="userSpaceOnUse">
<stop stop-color="#BB65FF"/>
<stop offset="1" stop-color="#4C6FFF"/>
</linearGradient>
</defs>
</svg>
