<svg width="91" height="26" viewBox="0 0 91 26" fill="none" xmlns="http://www.w3.org/2000/svg">
<path d="M9.52117 25.5C14.1651 25.5 17.1246 22.7449 17.4374 18.8229H13.2748C12.9018 20.808 11.4702 21.9509 9.55726 21.9509C6.8383 21.9509 5.08181 19.6771 5.08181 15.8994C5.08181 12.1699 6.8744 9.93215 9.55726 9.93215C11.6506 9.93215 12.9379 11.2796 13.2748 13.0602H17.4374C17.1367 9.0539 14.0087 6.41915 9.49711 6.41915C4.08325 6.41915 0.666504 10.3292 0.666504 15.9716C0.666504 21.5659 3.99904 25.5 9.52117 25.5Z" fill="white"/>
<path d="M23.6748 0.5H19.3197V25.1391H23.6748V0.5Z" fill="white"/>
<path d="M34.6403 25.5C38.9473 25.5 41.9069 23.3946 42.6768 20.1824L38.6104 19.7252C38.0209 21.2892 36.5772 22.1073 34.7004 22.1073C31.8852 22.1073 30.0205 20.2546 29.9844 17.0905H42.8573V15.7551C42.8573 9.27045 38.9593 6.41915 34.4117 6.41915C29.1181 6.41915 25.6653 10.3051 25.6653 16.0077C25.6653 21.8065 29.07 25.5 34.6403 25.5ZM29.9964 14.155C30.1287 11.7969 31.8732 9.81184 34.4718 9.81184C36.9743 9.81184 38.6586 11.6405 38.6826 14.155H29.9964Z" fill="white"/>
<path d="M60.8247 6.65977H56.1928L51.9339 20.3869H51.7415L47.4946 6.65977H42.8507L49.4315 25.1391H54.2439L60.8247 6.65977Z" fill="white"/>
<path d="M69.6968 25.5C74.0038 25.5 76.9634 23.3946 77.7334 20.1824L73.667 19.7252C73.0775 21.2892 71.6338 22.1073 69.757 22.1073C66.9418 22.1073 65.077 20.2546 65.0409 17.0905H77.9139V15.7551C77.9139 9.27045 74.0159 6.41915 69.4682 6.41915C64.1747 6.41915 60.7218 10.3051 60.7218 16.0077C60.7218 21.8065 64.1266 25.5 69.6968 25.5ZM65.0529 14.155C65.1853 11.7969 66.9297 9.81184 69.5284 9.81184C72.0308 9.81184 73.7151 11.6405 73.7392 14.155H65.0529Z" fill="white"/>
<path d="M79.9044 25.1391H84.2595V14.2753C84.2595 11.9293 86.028 10.269 88.4222 10.269C89.156 10.269 90.0704 10.4013 90.4433 10.5217V6.5154C90.0463 6.44321 89.3606 6.39509 88.8793 6.39509C86.7619 6.39509 84.9934 7.59817 84.3197 9.73965H84.1272V6.65977H79.9044V25.1391Z" fill="white"/>
</svg>
