<svg width="50" height="50" viewBox="0 0 50 50" fill="none" xmlns="http://www.w3.org/2000/svg">
<path d="M0 10C0 4.47715 4.47715 0 10 0H40C45.5228 0 50 4.47715 50 10V40C50 45.5228 45.5228 50 40 50H10C4.47715 50 0 45.5228 0 40V10Z" fill="white"/>
<path fill-rule="evenodd" clip-rule="evenodd" d="M28.9582 35.7165C28.9582 36.4585 29.9206 36.7499 30.3322 36.1325L38.7364 23.5263C39.0687 23.0279 38.7114 22.3602 38.1123 22.3602H31.5971V14.2818C31.5971 13.5397 30.6346 13.2483 30.223 13.8657L21.8189 26.472C21.4866 26.9704 21.8439 27.638 22.4429 27.638H28.9582V35.7165Z" fill="#16192C"/>
<path opacity="0.3" fill-rule="evenodd" clip-rule="evenodd" d="M13.1247 17.2637C13.1247 16.4352 13.7963 15.7637 14.6247 15.7637H22.1803C23.0087 15.7637 23.6803 16.4352 23.6803 17.2637V18.222C23.6803 19.0504 23.0087 19.722 22.1803 19.722H14.6247C13.7963 19.722 13.1247 19.0504 13.1247 18.222V17.2637ZM13.1247 33.097C13.1247 32.2686 13.7963 31.597 14.6247 31.597H22.1803C23.0087 31.597 23.6803 32.2686 23.6803 33.097V34.0553C23.6803 34.8838 23.0087 35.5553 22.1803 35.5553H14.6247C13.7963 35.5553 13.1247 34.8838 13.1247 34.0553V33.097ZM11.9858 23.6803C11.1574 23.6803 10.4858 24.3519 10.4858 25.1803V26.1387C10.4858 26.9671 11.1574 27.6387 11.9858 27.6387H18.2219C19.0504 27.6387 19.7219 26.9671 19.7219 26.1387V25.1803C19.7219 24.3519 19.0504 23.6803 18.2219 23.6803H11.9858Z" fill="#16192C"/>
</svg>
