<svg width="36" height="36" viewBox="0 0 36 36" fill="none" xmlns="http://www.w3.org/2000/svg">
<path d="M0 10C0 4.47715 4.47715 0 10 0H26C31.5228 0 36 4.47715 36 10V26C36 31.5228 31.5228 36 26 36H10C4.47715 36 0 31.5228 0 26V10Z" fill="url(#paint0_linear_3095_20077)"/>
<path fill-rule="evenodd" clip-rule="evenodd" d="M20.8499 25.0229C20.8499 25.765 21.8123 26.0564 22.2239 25.4389L27.6726 17.266C28.0048 16.7676 27.6475 16.1 27.0485 16.1H22.7499V10.9771C22.7499 10.235 21.7875 9.94363 21.3759 10.5611L15.9273 18.734C15.595 19.2324 15.9523 19.9 16.5513 19.9H20.8499V25.0229Z" fill="white"/>
<path opacity="0.3" fill-rule="evenodd" clip-rule="evenodd" d="M9.45029 12.7746C9.45029 11.9876 10.0883 11.3496 10.8753 11.3496H15.6253C16.4123 11.3496 17.0503 11.9876 17.0503 12.7746C17.0503 13.5616 16.4123 14.1996 15.6253 14.1996H10.8753C10.0883 14.1996 9.45029 13.5616 9.45029 12.7746ZM9.45029 24.1746C9.45029 23.3876 10.0883 22.7496 10.8753 22.7496H15.6253C16.4123 22.7496 17.0503 23.3876 17.0503 24.1746C17.0503 24.9616 16.4123 25.5996 15.6253 25.5996H10.8753C10.0883 25.5996 9.45029 24.9616 9.45029 24.1746ZM8.97529 17.0496C8.18829 17.0496 7.55029 17.6876 7.55029 18.4746C7.55029 19.2616 8.18829 19.8996 8.97529 19.8996H12.7753C13.5623 19.8996 14.2003 19.2616 14.2003 18.4746C14.2003 17.6876 13.5623 17.0496 12.7753 17.0496H8.97529Z" fill="white"/>
<defs>
<linearGradient id="paint0_linear_3095_20077" x1="36" y1="0" x2="0" y2="36" gradientUnits="userSpaceOnUse">
<stop stop-color="#BB65FF"/>
<stop offset="1" stop-color="#4C6FFF"/>
</linearGradient>
</defs>
</svg>
