<?xml version="1.0" encoding="utf-8"?>
<!-- Generator: Adobe Illustrator 16.0.0, SVG Export Plug-In . SVG Version: 6.00 Build 0)  -->
<!DOCTYPE svg PUBLIC "-//W3C//DTD SVG 1.1//EN" "http://www.w3.org/Graphics/SVG/1.1/DTD/svg11.dtd">
<svg version="1.1" id="Layer_1" xmlns="http://www.w3.org/2000/svg" xmlns:xlink="http://www.w3.org/1999/xlink" x="0px" y="0px"
	 width="227.561px" height="58.985px" viewBox="0 0 227.561 58.985" enable-background="new 0 0 227.561 58.985"
	 xml:space="preserve">
<linearGradient id="SVGID_1_" gradientUnits="userSpaceOnUse" x1="-0.2524" y1="24.1226" x2="39.5331" y2="24.1226">
	<stop  offset="0" style="stop-color:#FF2449"/>
	<stop  offset="1" style="stop-color:#FE5E00"/>
</linearGradient>
<path fill="url(#SVGID_1_)" d="M39.242,27.012c0.005-1.346-0.701-2.709-2.008-3.449l-9.276-5.253l8.757-8.39
	c0.363-0.348,0.538-0.842,0.476-1.34c-0.062-0.498-0.354-0.934-0.791-1.182L24.243,0.514C23.635,0.17,22.96,0,22.292,0
	c-0.976,0-1.947,0.363-2.697,1.061L1.263,18.113C0.418,18.895-0.004,19.971,0,21.008c-0.006,1.34,0.694,2.699,1.993,3.441h0
	l9.374,5.363L2.511,38.05c-0.368,0.344-0.552,0.842-0.495,1.342c0.057,0.498,0.35,0.943,0.787,1.191l12.479,7.141
	c0.612,0.35,1.293,0.523,1.965,0.521c0.995,0.002,1.985-0.375,2.74-1.1l18.034-17.277l0,0
	C38.838,29.088,39.245,28.031,39.242,27.012z M3.166,21.008c0.003-0.217,0.074-0.406,0.253-0.576L21.752,3.379
	c0.151-0.141,0.342-0.213,0.541-0.213c0.135,0,0.267,0.033,0.391,0.104l10.305,5.836L14.184,27.121
	c-0.153,0.146-0.348,0.221-0.55,0.221c-0.136,0-0.268-0.033-0.393-0.105h0l-9.675-5.535h0C3.295,21.545,3.172,21.293,3.166,21.008z
	 M35.831,27.582L17.797,44.86c-0.152,0.145-0.348,0.219-0.55,0.219c-0.136,0-0.269-0.033-0.393-0.104L6.242,38.903l19.124-17.786
	c0.15-0.141,0.342-0.213,0.54-0.213c0.135,0,0.267,0.033,0.391,0.104l9.377,5.311c0.271,0.154,0.396,0.406,0.402,0.693
	C36.072,27.227,36.004,27.412,35.831,27.582"/>
<g>
	<path d="M79.144,11.949H61.533c-2.878,0-4.674,0.529-5.387,1.588c-0.414,0.645-0.621,2.107-0.621,4.387
		c0,1.197,0.54,2.129,1.623,2.797c0.897,0.529,2.359,0.793,4.385,0.793h7.287c3.107,0,5.594,0.623,7.459,1.865
		c1.864,1.244,2.797,2.992,2.797,5.248v5.458c0,2.371-0.956,4.189-2.867,5.455c-1.91,1.268-4.523,1.9-7.838,1.9H48.722v-5.041
		h17.611c2.923,0,4.742-0.576,5.455-1.727c0.322-0.6,0.484-2.153,0.484-4.663c0-2.35-1.912-3.523-5.732-3.523h-7.287
		c-3.016,0-5.49-0.574-7.424-1.727c-2.118-1.266-3.177-2.992-3.177-5.18v-5.387c0-2.418,1.151-4.34,3.453-5.768
		c1.61-1.012,3.948-1.518,7.01-1.518h20.028V11.949z"/>
	<path d="M101.038,20.201h-7.701V41.44h-6.077V6.805h6.077v9.047h7.701V20.201z"/>
	<path d="M123.241,19.58c-4.696,0-7.425,0.092-8.184,0.277c-1.611,0.482-2.417,1.646-2.417,3.486v17.958h-6.285V22.137
		c0-4.674,3.281-7.012,9.841-7.012h7.045V19.58z"/>
	<path d="M158.324,35.017c0,2.211-0.99,3.902-2.969,5.076c-1.404,0.898-3.523,1.348-6.354,1.348H138.47
		c-3.224,0-5.635-0.576-7.234-1.727c-1.601-1.15-2.4-2.717-2.4-4.697v-12.95c0-2.256,1.013-4.006,3.039-5.248
		c1.473-0.898,3.672-1.348,6.596-1.348h10.532c2.922,0,5.064,0.449,6.422,1.348c1.934,1.174,2.9,2.924,2.9,5.248V35.017z
		 M152.248,33.81V23.275c0-1.197-0.473-2.072-1.416-2.625c-0.76-0.529-1.934-0.793-3.523-0.793h-7.216
		c-1.658,0-2.89,0.264-3.695,0.793c-0.99,0.553-1.485,1.428-1.485,2.625v10.464c0,1.129,0.495,1.969,1.485,2.521
		c0.76,0.482,1.842,0.725,3.246,0.725h8.079c1.359,0,2.395-0.242,3.109-0.725C151.775,35.708,152.248,34.892,152.248,33.81z"/>
	<path d="M172.137,41.44h-6.076V6.805h6.076V41.44z M193.996,41.44h-7.494l-12.949-11.501c-0.713-0.598-1.07-1.174-1.07-1.727
		c0-0.598,0.402-1.266,1.209-2.002l12.225-10.67h7.285L179.01,28.213L193.996,41.44z"/>
	<path d="M227.561,25.727L204.287,32.6v0.864c0,1.357,0.518,2.348,1.553,2.969c0.715,0.369,1.945,0.553,3.695,0.553h17.957v4.455
		h-19.096c-3.293,0-5.721-0.494-7.287-1.484c-1.98-1.176-2.969-3.039-2.969-5.596V22.066c0-4.396,3.234-6.596,9.703-6.596h10.67
		c6.031,0,9.047,2.338,9.047,7.01V25.727z M221.346,23.207v-0.381c0-1.979-1.611-2.969-4.834-2.969h-6.699
		c-3.73,0-5.596,1.117-5.596,3.35v5.076L221.346,23.207z"/>
</g>
<g>
	<path fill="#6B6B6B" d="M161.865,46.916v11.899h-1.445V46.916H161.865z"/>
	<path fill="#6B6B6B" d="M170.79,52.594c-0.283-0.329-0.697-0.493-1.24-0.493c-0.397,0-0.746,0.082-1.046,0.247
		c-0.3,0.164-0.532,0.394-0.697,0.688c-0.164,0.295-0.247,0.635-0.247,1.02v4.76H166.2v-7.819h1.359v1.224
		c0.262-0.476,0.588-0.827,0.979-1.054s0.842-0.341,1.352-0.341c0.826,0,1.481,0.275,1.963,0.825
		c0.482,0.55,0.723,1.295,0.723,2.235v4.93h-1.359v-4.76C171.216,53.41,171.073,52.923,170.79,52.594z"/>
	<path fill="#6B6B6B" d="M180.14,50.996v1.274h-3.91v-1.274H180.14z M179.604,46.822c-0.153-0.051-0.298-0.076-0.434-0.076
		c-0.17,0-0.314,0.048-0.434,0.145s-0.213,0.258-0.28,0.484c-0.068,0.227-0.103,0.526-0.103,0.901v10.539h-1.359V48.106
		c0-0.623,0.09-1.134,0.271-1.531c0.182-0.396,0.439-0.693,0.773-0.892s0.74-0.298,1.216-0.298c0.249,0,0.47,0.034,0.663,0.102
		c0.192,0.068,0.359,0.154,0.502,0.256c0.141,0.102,0.252,0.209,0.331,0.322l-0.748,1.123
		C179.891,46.995,179.757,46.874,179.604,46.822z"/>
	<path fill="#6B6B6B" d="M183.242,52.798c0.356-0.611,0.842-1.094,1.454-1.445c0.611-0.351,1.297-0.527,2.057-0.527
		c0.771,0,1.459,0.177,2.065,0.527c0.606,0.352,1.088,0.834,1.444,1.445c0.357,0.612,0.536,1.314,0.536,2.107
		c0,0.783-0.179,1.482-0.536,2.1c-0.356,0.618-0.838,1.104-1.444,1.454c-0.606,0.352-1.295,0.526-2.065,0.526
		c-0.76,0-1.445-0.175-2.057-0.526c-0.612-0.351-1.098-0.836-1.454-1.454c-0.356-0.617-0.535-1.316-0.535-2.1
		C182.707,54.112,182.886,53.41,183.242,52.798z M184.433,56.351c0.232,0.42,0.549,0.752,0.951,0.994
		c0.402,0.244,0.859,0.366,1.369,0.366s0.966-0.122,1.368-0.366c0.402-0.242,0.72-0.574,0.952-0.994
		c0.232-0.419,0.349-0.9,0.349-1.445c0-0.543-0.116-1.027-0.349-1.453c-0.232-0.425-0.55-0.756-0.952-0.994
		s-0.858-0.357-1.368-0.357s-0.967,0.119-1.369,0.357s-0.719,0.569-0.951,0.994c-0.232,0.426-0.349,0.91-0.349,1.453
		C184.084,55.45,184.2,55.932,184.433,56.351z"/>
	<path fill="#6B6B6B" d="M197.089,50.996v1.274h-3.91v-1.274H197.089z M195.813,48.276v10.539h-1.36V48.276H195.813z"/>
	<path fill="#6B6B6B" d="M201.245,58.468c-0.561-0.346-0.998-0.824-1.309-1.438c-0.313-0.611-0.468-1.319-0.468-2.125
		c0-0.815,0.161-1.529,0.484-2.141c0.323-0.613,0.776-1.089,1.36-1.429c0.583-0.34,1.26-0.511,2.031-0.511
		c0.771,0,1.431,0.162,1.98,0.485c0.549,0.323,0.972,0.784,1.266,1.386c0.295,0.601,0.443,1.314,0.443,2.142
		c0,0.079-0.004,0.161-0.01,0.247c-0.006,0.084-0.008,0.139-0.008,0.161h-6.682V54.09h5.61l-0.544,0.782
		c0.034-0.057,0.068-0.145,0.102-0.264c0.035-0.119,0.052-0.219,0.052-0.297c0-0.465-0.094-0.867-0.28-1.207
		c-0.188-0.34-0.445-0.607-0.773-0.8c-0.329-0.192-0.715-0.288-1.156-0.288c-0.521,0-0.967,0.109-1.334,0.331
		c-0.369,0.221-0.652,0.538-0.851,0.952s-0.304,0.92-0.314,1.521c0,0.611,0.097,1.133,0.289,1.563s0.476,0.76,0.85,0.986
		s0.827,0.34,1.36,0.34c0.532,0,1.003-0.116,1.41-0.349c0.408-0.232,0.754-0.586,1.037-1.063l1.105,0.697
		c-0.408,0.657-0.921,1.153-1.539,1.487c-0.617,0.334-1.346,0.501-2.184,0.501C202.449,58.985,201.806,58.813,201.245,58.468z"/>
	<path fill="#6B6B6B" d="M211.563,56.351c0.232,0.42,0.551,0.752,0.953,0.994c0.402,0.244,0.857,0.366,1.368,0.366
		c0.419,0,0.813-0.065,1.181-0.195c0.369-0.13,0.689-0.306,0.961-0.527c0.272-0.221,0.465-0.456,0.578-0.706v1.701
		c-0.271,0.316-0.66,0.563-1.164,0.739c-0.505,0.175-1.023,0.263-1.556,0.263c-0.76,0-1.445-0.175-2.058-0.526
		c-0.611-0.351-1.096-0.836-1.453-1.454c-0.357-0.617-0.535-1.316-0.535-2.1c0-0.793,0.178-1.495,0.535-2.107
		c0.357-0.611,0.842-1.094,1.453-1.445c0.612-0.351,1.298-0.527,2.058-0.527c0.532,0,1.051,0.089,1.556,0.264
		c0.504,0.176,0.893,0.423,1.164,0.74v1.699c-0.113-0.26-0.306-0.498-0.578-0.713c-0.271-0.216-0.592-0.389-0.961-0.52
		c-0.367-0.129-0.762-0.195-1.181-0.195c-0.511,0-0.966,0.119-1.368,0.357s-0.721,0.569-0.953,0.994
		c-0.232,0.426-0.348,0.91-0.348,1.453C211.216,55.45,211.331,55.932,211.563,56.351z"/>
	<path fill="#6B6B6B" d="M221.789,58.815h-1.36v-13.26h1.36V58.815z M225.028,52.594c-0.278-0.329-0.695-0.493-1.25-0.493
		c-0.396,0-0.746,0.086-1.045,0.256c-0.301,0.17-0.533,0.402-0.697,0.696c-0.164,0.295-0.247,0.63-0.247,1.003h-0.442
		c0-0.623,0.119-1.176,0.357-1.657s0.564-0.864,0.978-1.147s0.893-0.426,1.437-0.426s1.018,0.114,1.42,0.341
		s0.714,0.567,0.935,1.021c0.222,0.453,0.331,1.02,0.331,1.699v4.93h-1.359v-4.76C225.444,53.41,225.306,52.923,225.028,52.594z"/>
</g>
</svg>
